<svg width="40" height="40" viewBox="0 0 40 40" fill="none" xmlns="http://www.w3.org/2000/svg">
<path d="M36.35 17.0833C36.25 17.0167 35.4167 16.3667 33.6167 16.3667C33.15 16.3667 32.6834 16.4167 32.2167 16.5C31.8667 14.1667 29.9167 12.9833 29.8334 12.9333L29.35 12.65L29.05 13.1C28.65 13.7 28.3334 14.3833 28.2 15.0833C27.8667 16.4167 28.0667 17.6833 28.75 18.7667C27.9334 19.2333 26.6 19.35 26.3167 19.35H4.36671C3.80004 19.35 3.33337 19.8167 3.33337 20.4C3.33337 22.3167 3.63337 24.2333 4.30004 26.0333C5.05004 28.0167 6.18337 29.4833 7.63337 30.3833C9.26671 31.3833 11.95 31.95 15 31.95C16.3167 31.95 17.6834 31.8333 19.0334 31.5833C20.9 31.25 22.7 30.6 24.35 29.65C25.7166 28.8686 26.9397 27.8596 27.9667 26.6667C29.7167 24.7167 30.75 22.5 31.5 20.5833H31.8167C33.7167 20.5833 34.9 19.8167 35.55 19.1667C35.9834 18.7667 36.3 18.2833 36.5334 17.7167L36.6667 17.3167L36.35 17.0833ZM6.41671 18.7333H9.35004C9.48337 18.7333 9.61671 18.6167 9.61671 18.4667V15.8333C9.61671 15.7 9.50004 15.5667 9.35004 15.5667H6.41671C6.26671 15.5667 6.15004 15.6833 6.15004 15.8333V18.4667C6.16671 18.6167 6.26671 18.7333 6.41671 18.7333ZM10.4667 18.7333H13.4C13.5334 18.7333 13.6667 18.6167 13.6667 18.4667V15.8333C13.6667 15.7 13.55 15.5667 13.4 15.5667H10.4667C10.3167 15.5667 10.2 15.6833 10.2 15.8333V18.4667C10.2167 18.6167 10.3167 18.7333 10.4667 18.7333ZM14.5834 18.7333H17.5C17.6667 18.7333 17.7834 18.6167 17.7834 18.4667V15.8333C17.7834 15.7 17.6834 15.5667 17.5 15.5667H14.5834C14.45 15.5667 14.3334 15.6833 14.3334 15.8333V18.4667C14.3334 18.6167 14.4334 18.7333 14.5834 18.7333ZM18.65 18.7333H21.6C21.7334 18.7333 21.85 18.6167 21.85 18.4667V15.8333C21.85 15.7 21.75 15.5667 21.6 15.5667H18.65C18.5167 15.5667 18.4 15.6833 18.4 15.8333V18.4667C18.4 18.6167 18.5167 18.7333 18.65 18.7333ZM10.4667 15H13.4C13.5334 15 13.6667 14.85 13.6667 14.7V12.0833C13.6667 11.9333 13.55 11.8167 13.4 11.8167H10.4667C10.3167 11.8167 10.2 11.9167 10.2 12.0833V14.7C10.2167 14.85 10.3167 15 10.4667 15ZM14.5834 15H17.5C17.6667 15 17.7834 14.85 17.7834 14.7V12.0833C17.7834 11.9333 17.6834 11.8167 17.5 11.8167H14.5834C14.45 11.8167 14.3334 11.9167 14.3334 12.0833V14.7C14.3334 14.85 14.4334 15 14.5834 15ZM18.65 15H21.6C21.7334 15 21.85 14.85 21.85 14.7V12.0833C21.85 11.9333 21.7334 11.8167 21.6 11.8167H18.65C18.5167 11.8167 18.4 11.9167 18.4 12.0833V14.7C18.4 14.85 18.5167 15 18.65 15ZM18.65 11.2H21.6C21.7334 11.2 21.85 11.0833 21.85 10.9333V8.33332C21.85 8.16665 21.7334 8.04999 21.6 8.04999H18.65C18.5167 8.04999 18.4 8.14999 18.4 8.33332V10.9333C18.4 11.0667 18.5167 11.2 18.65 11.2ZM22.75 18.7333H25.6834C25.8334 18.7333 25.95 18.6167 25.95 18.4667V15.8333C25.95 15.7 25.8334 15.5667 25.6834 15.5667H22.75C22.6167 15.5667 22.5 15.6833 22.5 15.8333V18.4667C22.5 18.6167 22.6167 18.7333 22.75 18.7333Z" fill="#F9F9F9"/>
</svg>
