<svg width="40" height="40" viewBox="0 0 40 40" fill="none" xmlns="http://www.w3.org/2000/svg">
<path d="M20 4V13C20 13.7956 20.3161 14.5587 20.8787 15.1213C21.4413 15.6839 22.2044 16 23 16H32V33C32 33.7956 31.6839 34.5587 31.1213 35.1213C30.5587 35.6839 29.7956 36 29 36H11C10.2044 36 9.44129 35.6839 8.87868 35.1213C8.31607 34.5587 8 33.7956 8 33V7C8 6.20435 8.31607 5.44129 8.87868 4.87868C9.44129 4.31607 10.2044 4 11 4H20ZM22 4.5V13C22 13.2652 22.1054 13.5196 22.2929 13.7071C22.4804 13.8946 22.7348 14 23 14H31.5L22 4.5Z" fill="#F9F9F9"/>
</svg>
