<svg width="40" height="40" viewBox="0 0 40 40" fill="none" xmlns="http://www.w3.org/2000/svg">
<path fill-rule="evenodd" clip-rule="evenodd" d="M21.25 25.6209C21.7399 26.013 22.2835 26.3349 22.8655 26.5759C23.6744 26.9109 24.5412 27.0834 25.4167 27.0834C26.2922 27.0834 27.159 26.9109 27.9679 26.5759C28.7767 26.2409 29.5117 25.7499 30.1307 25.1307C30.7499 24.5117 31.2409 23.7767 31.5759 22.9679C31.9109 22.159 32.0834 21.2922 32.0834 20.4167C32.0834 19.5412 31.9109 18.6744 31.5759 17.8655C31.2409 17.0567 30.7499 16.3217 30.1307 15.7026C29.8739 15.4457 29.5969 15.2109 29.303 15C29.5969 14.7892 29.8739 14.5543 30.1307 14.2974C30.7499 13.6783 31.2409 12.9434 31.5759 12.1346C31.9109 11.3257 32.0834 10.4588 32.0834 9.58335C32.0834 8.70787 31.9109 7.84097 31.5759 7.03214C31.2409 6.22329 30.7499 5.48837 30.1307 4.8693C29.5117 4.25025 28.7767 3.75919 27.9679 3.42415C27.159 3.08912 26.2922 2.91669 25.4167 2.91669H14.5834C12.8152 2.91669 11.1196 3.61907 9.8693 4.8693C8.61907 6.11955 7.91669 7.81524 7.91669 9.58335C7.91669 11.3515 8.61907 13.0472 9.8693 14.2974C10.1273 14.5554 10.4043 14.7901 10.6969 15C10.4043 15.21 10.1273 15.4447 9.8693 15.7026C8.61907 16.9529 7.91669 18.6485 7.91669 20.4167C7.91669 22.1849 8.61907 23.8805 9.8693 25.1307C10.1273 25.3887 10.4043 25.6234 10.6969 25.8334C10.4043 26.0434 10.1273 26.278 9.8693 26.536C8.61907 27.7862 7.91669 29.4819 7.91669 31.25C7.91669 33.0182 8.61907 34.7139 9.8693 35.964C11.1196 37.2144 12.8152 37.9167 14.5834 37.9167C16.3515 37.9167 18.0472 37.2144 19.2974 35.964C20.5477 34.7139 21.25 33.0182 21.25 31.25V25.6209ZM14.5834 5.41669C13.4783 5.41669 12.4185 5.85567 11.6371 6.63707C10.8557 7.41847 10.4167 8.47829 10.4167 9.58335C10.4167 10.6884 10.8557 11.7482 11.6371 12.5296C12.4185 13.311 13.4783 13.75 14.5834 13.75H18.75V5.41669H14.5834ZM18.75 27.0834H14.5834C13.4783 27.0834 12.4185 27.5224 11.6371 28.3037C10.8557 29.0852 10.4167 30.145 10.4167 31.25C10.4167 32.355 10.8557 33.4149 11.6371 34.1964C12.4185 34.9777 13.4783 35.4167 14.5834 35.4167C15.6884 35.4167 16.7482 34.9777 17.5297 34.1964C18.311 33.4149 18.75 32.355 18.75 31.25V27.0834ZM14.5834 16.25C13.4783 16.25 12.4185 16.689 11.6371 17.4704C10.8557 18.2519 10.4167 19.3117 10.4167 20.4167C10.4167 21.5217 10.8557 22.5815 11.6371 23.363C12.4185 24.1444 13.4783 24.5834 14.5834 24.5834H18.75V16.25H14.5834ZM21.25 20.4167C21.25 20.9639 21.3579 21.5057 21.5672 22.0112C21.7765 22.5167 22.0835 22.976 22.4704 23.363C22.8574 23.7499 23.3167 24.0569 23.8222 24.2662C24.3277 24.4755 24.8695 24.5834 25.4167 24.5834C25.9639 24.5834 26.5057 24.4755 27.0112 24.2662C27.5167 24.0569 27.976 23.7499 28.363 23.363C28.7499 22.976 29.0569 22.5167 29.2662 22.0112C29.4755 21.5057 29.5834 20.9639 29.5834 20.4167C29.5834 19.8695 29.4755 19.3277 29.2662 18.8222C29.0569 18.3167 28.7499 17.8574 28.363 17.4704C27.976 17.0835 27.5167 16.7765 27.0112 16.5672C26.5057 16.3578 25.9639 16.25 25.4167 16.25C24.8695 16.25 24.3277 16.3578 23.8222 16.5672C23.3167 16.7765 22.8574 17.0835 22.4704 17.4704C22.0835 17.8574 21.7765 18.3167 21.5672 18.8222C21.3579 19.3277 21.25 19.8695 21.25 20.4167ZM25.4167 13.75C25.9639 13.75 26.5057 13.6423 27.0112 13.4329C27.5167 13.2235 27.976 12.9165 28.363 12.5296C28.7499 12.1427 29.0569 11.6834 29.2662 11.1779C29.4755 10.6723 29.5834 10.1305 29.5834 9.58335C29.5834 9.03619 29.4755 8.49437 29.2662 7.98884C29.0569 7.48332 28.7499 7.02399 28.363 6.63707C27.976 6.25017 27.5167 5.94325 27.0112 5.73385C26.5057 5.52445 25.9639 5.41669 25.4167 5.41669H21.25V13.75H25.4167Z" fill="#F9F9F9"/>
</svg>
