<svg width="40" height="40" viewBox="0 0 40 40" fill="none" xmlns="http://www.w3.org/2000/svg">
<path d="M26.0633 7.61002L26.1566 7.66336C24.8933 8.33002 21.2833 10.48 21.2833 13.2167C21.2833 14.14 21.8116 15.03 22.3066 15.8667C22.7433 16.6034 23.155 17.2967 23.155 17.93C23.155 19.525 21.6 20.7634 20.7216 21.3334L20.555 21.2367C20.8866 20.8317 21.295 20.1534 21.295 19.43C21.295 18.4334 20.7833 17.6367 20.265 16.8284C19.7283 15.9934 19.185 15.145 19.185 14.045C19.185 10.225 24.3766 8.17502 26.0633 7.61002ZM19.2383 9.63002C21.3266 7.76336 23.6083 5.72336 23.6083 2.65502C23.6083 1.26669 23.04 0.380024 22.7583 0.0250244L22.6666 0.0766911C22.7333 0.353358 22.8333 0.863358 22.8333 1.53002C22.8333 4.32336 20.4633 6.28002 18.17 8.17669C16.0183 9.95669 13.9333 11.68 13.9333 13.9867C13.9333 17.295 17.1966 19.33 18.575 20.19L18.68 20.2567L18.7633 20.2067C18.6889 20.1245 18.61 20.04 18.5266 19.9534C17.4666 18.825 15.8566 17.1134 15.8566 14.495C15.8566 12.6567 17.4783 11.205 19.2383 9.63002ZM18.4866 26.1434C21.4266 26.1434 23.4833 25.7217 24.3966 25.4634L25.7833 26.2634C24.4616 26.935 21.5316 27.4467 18.48 27.4467C14.8916 27.4467 10.9683 26.6767 10.9566 25.65C10.9483 25.0834 12.2316 24.7067 13.615 24.4634L13.6983 24.5117C13.6983 24.5117 13.23 24.68 13.235 25.0667C13.2416 25.65 15.6016 26.1434 18.485 26.1434M12.6033 29.7617C12.6033 29.0834 14.0016 28.7617 14.6416 28.6334L14.725 28.6834C14.615 28.765 14.555 28.8767 14.555 28.9717C14.555 29.4167 16.105 29.8234 18.4816 29.8234C20.6116 29.8234 21.795 29.5617 22.4983 29.3934L24.1483 30.3484C24.0733 30.4017 22.4483 31.4234 18.4783 31.4234C15.5933 31.4234 12.6033 30.7034 12.6033 29.7617ZM26.8183 26.8817C28.785 25.76 30.7533 24.4334 30.865 22.3034C30.9383 20.905 29.6533 19.88 28.2483 20.1534L28.3233 19.9667V19.9634C28.6766 19.8567 29.1133 19.77 29.6016 19.77C31.1733 19.77 32.3783 20.7117 32.5316 22.03C32.8416 24.6734 29.095 26.3934 26.9966 26.985L26.8183 26.8817ZM30.11 31.8617C30.1266 33.6784 23.9466 34.7584 18.4233 34.8067C13.655 34.8484 5.96664 33.9484 5.94997 32.1317C5.93997 30.8767 9.28331 30.0084 11.1 29.7584L11.2916 29.8667C11.2916 29.8667 8.58331 30.495 8.59164 31.6367C8.60164 32.775 14.3 33.76 18.415 33.725C24.79 33.6684 29.105 32.63 29.615 31.2217L29.705 31.17C29.8916 31.3067 30.105 31.5317 30.11 31.8617ZM10.7166 35.5617C13.0749 35.9385 15.4602 36.1196 17.8483 36.1034C28.195 36.0134 31.115 33.47 31.565 32.9167L31.6433 32.9634C31.5366 34.9767 26.065 36.65 19.3166 36.7084C15.8816 36.7384 12.755 36.3417 10.5083 35.6834L10.7166 35.5617ZM15.0533 20.09C13.255 20.2284 9.39331 20.8 9.39331 21.8167C9.39331 22.5867 12.9333 23.6717 18.48 23.6717C23.47 23.6717 26.62 22.73 27.355 22.3717L26.2833 21.7467C25.5166 21.955 22.6683 22.59 18.48 22.59C16.0133 22.59 11.7633 22.135 11.7633 21.44C11.7633 20.8167 14.415 20.3367 15.1766 20.1984L15.225 20.19L15.0533 20.09Z" fill="#F9F9F9"/>
</svg>
