<svg width="40" height="40" viewBox="0 0 40 40" fill="none" xmlns="http://www.w3.org/2000/svg">
<path d="M32.0499 25.4333L27.8166 24.95C27.3188 24.8915 26.8143 24.9466 26.3409 25.1112C25.8675 25.2757 25.4375 25.5454 25.0833 25.9L22.0166 28.9667C17.2856 26.5599 13.4401 22.7143 11.0333 17.9833L14.1166 14.9C14.8333 14.1833 15.1833 13.1833 15.0666 12.1667L14.5833 7.96667C14.4891 7.15348 14.0991 6.40337 13.4874 5.85932C12.8757 5.31527 12.0852 5.01533 11.2666 5.01667H8.38328C6.49995 5.01667 4.93328 6.58333 5.04995 8.46667C5.93328 22.7 17.3166 34.0667 31.5333 34.95C33.4166 35.0667 34.9833 33.5 34.9833 31.6167V28.7333C34.9999 27.05 33.7333 25.6333 32.0499 25.4333Z" fill="#F9F9F9"/>
</svg>
