<svg width="40" height="40" viewBox="0 0 40 40" fill="none" xmlns="http://www.w3.org/2000/svg">
<path d="M20 16.85C21.7166 16.85 23.1166 18.25 23.1166 20C23.1166 21.6667 21.7166 23.0833 20 23.0833C18.2833 23.0833 16.8833 21.6667 16.8833 20C16.8833 18.25 18.2833 16.85 20 16.85ZM12.2833 33.3333C13.3333 33.9667 15.6333 33 18.2833 30.5C17.4166 29.5167 16.5666 28.45 15.7666 27.3333C14.4237 27.2039 13.0885 27.0036 11.7666 26.7333C10.9166 30.3 11.2333 32.75 12.2833 33.3333ZM13.4666 23.7667L12.9833 22.9167C12.8 23.4 12.6166 23.8833 12.5 24.35C12.95 24.45 13.45 24.5333 13.9666 24.6167L13.4666 23.7667ZM24.3666 22.5L25.7166 20L24.3666 17.5C23.8666 16.6167 23.3333 15.8333 22.85 15.05C21.95 15 21 15 20 15C19 15 18.05 15 17.15 15.05C16.6666 15.8333 16.1333 16.6167 15.6333 17.5L14.2833 20L15.6333 22.5C16.1333 23.3833 16.6666 24.1667 17.15 24.95C18.05 25 19 25 20 25C21 25 21.95 25 22.85 24.95C23.3333 24.1667 23.8666 23.3833 24.3666 22.5ZM20 11.3C19.6833 11.6667 19.35 12.05 19.0166 12.5H20.9833C20.65 12.05 20.3166 11.6667 20 11.3ZM20 28.7C20.3166 28.3333 20.65 27.95 20.9833 27.5H19.0166C19.35 27.95 19.6833 28.3333 20 28.7ZM27.7 6.66667C26.6666 6.03334 24.3666 7.00001 21.7166 9.50001C22.5833 10.4833 23.4333 11.55 24.2333 12.6667C25.6 12.8 26.95 13 28.2333 13.2667C29.0833 9.70001 28.7666 7.25001 27.7 6.66667ZM26.5333 16.2333L27.0166 17.0833C27.2 16.6 27.3833 16.1167 27.5 15.65C27.05 15.55 26.55 15.4667 26.0333 15.3833L26.5333 16.2333ZM28.95 4.48334C31.4 5.88334 31.6666 9.56667 30.6333 13.8667C34.8666 15.1167 37.9166 17.1833 37.9166 20C37.9166 22.8167 34.8666 24.8833 30.6333 26.1333C31.6666 30.4333 31.4 34.1167 28.95 35.5167C26.5166 36.9167 23.2 35.3167 20 32.2667C16.8 35.3167 13.4833 36.9167 11.0333 35.5167C8.59998 34.1167 8.33331 30.4333 9.36665 26.1333C5.13331 24.8833 2.08331 22.8167 2.08331 20C2.08331 17.1833 5.13331 15.1167 9.36665 13.8667C8.33331 9.56667 8.59998 5.88334 11.0333 4.48334C13.4833 3.08334 16.8 4.68334 20 7.73334C23.2 4.68334 26.5166 3.08334 28.95 4.48334ZM28.4666 20C29.0333 21.25 29.5333 22.5 29.95 23.7667C33.45 22.7167 35.4166 21.2167 35.4166 20C35.4166 18.7833 33.45 17.2833 29.95 16.2333C29.5333 17.5 29.0333 18.75 28.4666 20ZM11.5333 20C10.9666 18.75 10.4666 17.5 10.05 16.2333C6.54998 17.2833 4.58331 18.7833 4.58331 20C4.58331 21.2167 6.54998 22.7167 10.05 23.7667C10.4666 22.5 10.9666 21.25 11.5333 20ZM26.5333 23.7667L26.0333 24.6167C26.55 24.5333 27.05 24.45 27.5 24.35C27.3833 23.8833 27.2 23.4 27.0166 22.9167L26.5333 23.7667ZM21.7166 30.5C24.3666 33 26.6666 33.9667 27.7 33.3333C28.7666 32.75 29.0833 30.3 28.2333 26.7333C26.95 27 25.6 27.2 24.2333 27.3333C23.4333 28.45 22.5833 29.5167 21.7166 30.5ZM13.4666 16.2333L13.9666 15.3833C13.45 15.4667 12.95 15.55 12.5 15.65C12.6166 16.1167 12.8 16.6 12.9833 17.0833L13.4666 16.2333ZM18.2833 9.50001C15.6333 7.00001 13.3333 6.03334 12.2833 6.66667C11.2333 7.25001 10.9166 9.70001 11.7666 13.2667C13.0885 12.9964 14.4237 12.7961 15.7666 12.6667C16.5666 11.55 17.4166 10.4833 18.2833 9.50001Z" fill="#F9F9F9"/>
</svg>
