<svg width="40" height="40" viewBox="0 0 40 40" fill="none" xmlns="http://www.w3.org/2000/svg">
<path d="M20 0.71875C9.34375 0.71875 0.71875 9.34375 0.71875 20C0.71875 30.6563 9.34375 39.2812 20 39.2812C30.6563 39.2812 39.2812 30.6563 39.2812 20C39.2812 9.34375 30.6563 0.71875 20 0.71875ZM30.4063 11.875C29.5 11.9063 28.9063 11.375 28.875 10.5625C28.875 10.25 28.9375 10 29.1563 9.6875C29.3438 9.3125 29.4063 9.25 29.4063 9.09375C29.375 8.59375 28.625 8.5625 28.4063 8.5625C25.5 8.65625 24.75 12.5625 24.125 15.75L23.8125 17.4375C25.4688 17.6875 26.6563 17.375 27.3125 16.9688C28.25 16.375 27.0625 15.75 27.1875 15.0625C27.3438 14.375 27.9688 14.0313 28.4688 14C29.1875 13.9688 29.6875 14.7188 29.6563 15.4688C29.625 16.6875 28 18.4063 24.7188 18.3125C24.3125 18.3125 23.9688 18.2813 23.625 18.25L23 21.6563C22.4375 24.2188 21.7188 27.75 19.0938 30.8125C16.8438 33.5 14.5625 33.9062 13.5313 33.9375C11.625 34 10.3438 32.9688 10.3125 31.625C10.2813 30.3125 11.4375 29.5938 12.1875 29.5625C13.2188 29.5313 13.9063 30.2813 13.9375 31.125C13.9688 31.8438 13.5938 32.0625 13.3438 32.2188C13.1875 32.3438 12.9375 32.5 12.9375 32.7813C12.9375 32.9063 13.0938 33.1875 13.5 33.1875C14.3125 33.1562 14.8438 32.75 15.2188 32.5C17.0938 30.9375 17.8125 28.2188 18.75 23.3125L18.9375 22.125C19.25 20.5313 19.625 18.7188 20.1563 16.9375C18.8438 15.9375 18.0625 14.7188 16.2813 14.25C15.0625 13.9063 14.3438 14.1875 13.8125 14.8438C13.1875 15.625 13.4063 16.625 14 17.2188L14.9688 18.3125C16.1875 19.7188 16.8438 20.7812 16.5938 22.25C16.25 24.5312 13.4688 26.3125 10.1875 25.3125C7.375 24.4375 6.875 22.4688 7.21875 21.375C7.5 20.4063 8.28125 20.2188 9.03125 20.4688C9.84375 20.7188 10.1563 21.6875 9.90625 22.4375C9.875 22.5313 9.84375 22.6563 9.75 22.8125C9.65625 23.0313 9.5 23.1875 9.40625 23.4375C9.21875 24.0313 10.0313 24.4375 10.5938 24.625C11.8438 25 13.0625 24.3438 13.375 23.3438C13.6563 22.4062 13.0625 21.75 12.8438 21.5L11.6563 20.2188C11.125 19.625 9.90625 17.9375 10.5 16.0313C10.7188 15.3125 11.1875 14.5313 11.875 14.0313C13.3125 12.9375 14.9063 12.7813 16.4063 13.2188C18.3438 13.7813 19.2813 15.0625 20.5 16.0625C21.1875 14.0938 22.125 12.125 23.5313 10.5C24.8125 9 26.5 7.9375 28.4688 7.84375C30.4375 7.78125 31.9063 8.65625 31.9688 10.0625C31.9375 10.6875 31.5938 11.8438 30.4063 11.875Z" fill="#F9F9F9"/>
</svg>
