<svg width="41" height="40" viewBox="0 0 41 40" fill="none" xmlns="http://www.w3.org/2000/svg">
<path d="M20.5 10C16.05 10 13.2833 12.2167 12.1666 16.6667C13.8333 14.45 15.7833 13.6167 18 14.1667C19.2666 14.4833 20.1833 15.4 21.1833 16.4167C22.8166 18.0833 24.6666 20 28.8333 20C33.2833 20 36.05 17.7833 37.1666 13.3333C35.5 15.55 33.55 16.3833 31.3333 15.8333C30.0666 15.5167 29.1666 14.6 28.15 13.5833C26.5166 11.9167 24.6666 10 20.5 10ZM12.1666 20C7.71665 20 4.94998 22.2167 3.83331 26.6667C5.49998 24.45 7.44998 23.6167 9.66665 24.1667C10.9333 24.4833 11.8333 25.4 12.85 26.4167C14.4833 28.0833 16.3333 30 20.5 30C24.95 30 27.7166 27.7833 28.8333 23.3333C27.1666 25.55 25.2166 26.3833 23 25.8333C21.7333 25.5167 20.8333 24.6 19.8166 23.5833C18.1833 21.9167 16.3333 20 12.1666 20Z" fill="#F9F9F9"/>
</svg>
